<?xml version="1.0" encoding="utf-8"?>
<svg version="1.1" xmlns:xlink="http://www.w3.org/1999/xlink" width="240px" height="136px" xmlns="http://www.w3.org/2000/svg">
  <g transform="matrix(1 0 0 1 -30 -32 )">
    <path d="M 30 32  L 270 32  L 270 168  L 30 168  L 30 32  " fill-rule="nonzero" fill="#cccccc" stroke="none" />
    <path d="M 40 42  L 260 42  L 260 158  L 40 158  L 40 42  " fill-rule="nonzero" fill="#ffffff" stroke="none" />
    <path d="M 165 72.8  C 159.288 72.8  154.8 68.312  154.8 62.6  C 154.8 56.888  159.288 52.4  165 52.4  C 170.712 52.4  175.2 56.888  175.2 62.6  C 175.2 68.312  170.712 72.8  165 72.8  " fill-rule="nonzero" fill="#cccccc" stroke="none" />
    <path d="M 44 155  L 44 95.05  L 97.25 67.8  L 171.8 117.94  L 214.4 84.15  L 257 117.94  L 257 155  L 44 155  " fill-rule="nonzero" fill="#169bd5" stroke="none" />
  </g>
</svg>