<?xml version="1.0" encoding="utf-8"?>
<svg version="1.1" xmlns:xlink="http://www.w3.org/1999/xlink" width="54px" height="40px" xmlns="http://www.w3.org/2000/svg">
  <g transform="matrix(1 0 0 1 -272 -143 )">
    <path d="M 32.4 6  L 32.4 0  L 54 0  L 54 6  L 32.4 6  Z M 32.4 20  L 32.4 15  L 54 15  L 54 20  L 32.4 20  Z M 32.4 34  L 32.4 29  L 54 29  L 54 34  L 32.4 34  Z M 17.55 0  C 7.8705 0  0 7.77333333333333  0 17.3333333333333  C 0 26.8933333333333  7.8705 34.6666666666667  17.55 34.6666666666667  L 18.9 34.6666666666667  L 18.9 40  L 27 32  L 18.9 24  L 18.9 29.3333333333333  L 17.55 29.3333333333333  C 10.854 29.3333333333333  5.4 23.9466666666667  5.4 17.3333333333333  C 5.4 10.72  10.854 5.33333333333333  17.55 5.33333333333333  L 27 5.33333333333333  L 27 0  L 17.55 0  Z " fill-rule="nonzero" fill="#1e1b1b" stroke="none" transform="matrix(1 0 0 1 272 143 )" />
  </g>
</svg>