<?xml version="1.0" encoding="utf-8"?>
<svg version="1.1" xmlns:xlink="http://www.w3.org/1999/xlink" width="43px" height="40px" xmlns="http://www.w3.org/2000/svg">
  <g transform="matrix(1 0 0 1 -500 -143 )">
    <path d="M 11.4666666666667 14.2857142857143  C 11.4666666666667 16.3541666666667  12.0713541666667 18.2589285714286  13.2807291666667 20  C 10.8619791666667 20.0744047619048  8.88368055555556 21.0267857142857  7.34583333333333 22.8571428571429  L 4.34479166666667 22.8571428571429  C 3.12048611111111 22.8571428571429  2.09027777777778 22.5558035714286  1.25416666666667 21.953125  C 0.418055555555556 21.3504464285714  0 20.46875  0 19.3080357142857  C 0 14.0550595238095  0.925694444444444 11.4285714285714  2.77708333333333 11.4285714285714  C 2.86666666666667 11.4285714285714  3.19140625 11.5848214285714  3.75130208333333 11.8973214285714  C 4.31119791666667 12.2098214285714  5.0390625 12.5260416666667  5.93489583333333 12.8459821428571  C 6.83072916666667 13.1659226190476  7.71909722222222 13.3258928571429  8.6 13.3258928571429  C 9.60034722222222 13.3258928571429  10.5932291666667 13.1547619047619  11.5786458333333 12.8125  C 11.5039930555556 13.3630952380952  11.4666666666667 13.8541666666667  11.4666666666667 14.2857142857143  Z M 37.18828125 31.9084821428571  C 37.2405381944444 32.6599702380952  37.2666666666667 33.4300595238095  37.2666666666667 34.21875  C 37.2666666666667 36.0044642857143  36.7217013888889 37.4144345238095  35.6317708333333 38.4486607142857  C 34.5418402777778 39.4828869047619  33.0935763888889 40  31.2869791666667 40  L 11.7130208333333 40  C 9.90642361111111 40  8.45815972222222 39.4828869047619  7.36822916666667 38.4486607142857  C 6.27829861111111 37.4144345238095  5.73333333333333 36.0044642857143  5.73333333333333 34.21875  C 5.73333333333333 33.4300595238095  5.75946180555556 32.6599702380952  5.81171875 31.9084821428571  C 5.86397569444445 31.156994047619  5.96848958333333 30.3459821428571  6.12526041666667 29.4754464285714  C 6.28203125 28.6049107142857  6.47986111111111 27.797619047619  6.71875 27.0535714285714  C 6.95763888888889 26.3095238095238  7.27864583333333 25.5840773809524  7.68177083333333 24.8772321428571  C 8.08489583333333 24.1703869047619  8.54774305555556 23.5677083333333  9.0703125 23.0691964285714  C 9.59288194444444 22.5706845238095  10.2311631944444 22.172619047619  10.98515625 21.875  C 11.7391493055556 21.5773809523809  12.5715277777778 21.4285714285714  13.4822916666667 21.4285714285714  C 13.6315972222222 21.4285714285714  13.9526041666667 21.5885416666667  14.4453125 21.9084821428571  C 14.9380208333333 22.2284226190476  15.4829861111111 22.5855654761905  16.0802083333333 22.9799107142857  C 16.6774305555556 23.3742559523809  17.4762152777778 23.7313988095238  18.4765625 24.0513392857143  C 19.4769097222222 24.3712797619048  20.4847222222222 24.53125  21.5 24.53125  C 22.5152777777778 24.53125  23.5230902777778 24.3712797619048  24.5234375 24.0513392857143  C 25.5237847222222 23.7313988095238  26.3225694444444 23.3742559523809  26.9197916666667 22.9799107142857  C 27.5170138888889 22.5855654761905  28.0619791666667 22.2284226190476  28.5546875 21.9084821428571  C 29.0473958333333 21.5885416666667  29.3684027777778 21.4285714285714  29.5177083333333 21.4285714285714  C 30.4284722222222 21.4285714285714  31.2608506944444 21.5773809523809  32.01484375 21.875  C 32.7688368055556 22.172619047619  33.4071180555556 22.5706845238095  33.9296875 23.0691964285714  C 34.4522569444444 23.5677083333333  34.9151041666667 24.1703869047619  35.3182291666667 24.8772321428571  C 35.7213541666667 25.5840773809524  36.0423611111111 26.3095238095238  36.28125 27.0535714285714  C 36.5201388888889 27.797619047619  36.71796875 28.6049107142857  36.8747395833333 29.4754464285714  C 37.0315104166667 30.3459821428571  37.1360243055556 31.156994047619  37.18828125 31.9084821428571  Z M 12.6536458333333 1.67410714285714  C 13.7734375 2.79017857142857  14.3333333333333 4.13690476190476  14.3333333333333 5.71428571428572  C 14.3333333333333 7.29166666666667  13.7734375 8.63839285714286  12.6536458333333 9.75446428571428  C 11.5338541666667 10.8705357142857  10.1826388888889 11.4285714285714  8.6 11.4285714285714  C 7.01736111111111 11.4285714285714  5.66614583333333 10.8705357142857  4.54635416666667 9.75446428571428  C 3.4265625 8.63839285714286  2.86666666666667 7.29166666666667  2.86666666666667 5.71428571428572  C 2.86666666666667 4.13690476190476  3.4265625 2.79017857142857  4.54635416666667 1.67410714285714  C 5.66614583333333 0.558035714285716  7.01736111111111 0  8.6 0  C 10.1826388888889 0  11.5338541666667 0.558035714285716  12.6536458333333 1.67410714285714  Z M 27.58046875 8.22544642857143  C 29.26015625 9.89955357142857  30.1 11.9196428571429  30.1 14.2857142857143  C 30.1 16.6517857142857  29.26015625 18.671875  27.58046875 20.3459821428571  C 25.90078125 22.0200892857143  23.8739583333333 22.8571428571429  21.5 22.8571428571429  C 19.1260416666667 22.8571428571429  17.09921875 22.0200892857143  15.41953125 20.3459821428571  C 13.73984375 18.671875  12.9 16.6517857142857  12.9 14.2857142857143  C 12.9 11.9196428571429  13.73984375 9.89955357142857  15.41953125 8.22544642857143  C 17.09921875 6.55133928571428  19.1260416666667 5.71428571428572  21.5 5.71428571428572  C 23.8739583333333 5.71428571428572  25.90078125 6.55133928571428  27.58046875 8.22544642857143  Z M 40.2229166666667 11.4285714285714  C 42.0743055555556 11.4285714285714  43 14.0550595238095  43 19.3080357142857  C 43 20.46875  42.5819444444444 21.3504464285714  41.7458333333333 21.953125  C 40.9097222222222 22.5558035714286  39.8795138888889 22.8571428571429  38.6552083333333 22.8571428571429  L 35.6541666666667 22.8571428571429  C 34.1163194444444 21.0267857142857  32.1380208333333 20.0744047619048  29.7192708333333 20  C 30.9286458333333 18.2589285714286  31.5333333333333 16.3541666666667  31.5333333333333 14.2857142857143  C 31.5333333333333 13.8541666666667  31.4960069444444 13.3630952380952  31.4213541666667 12.8125  C 32.4067708333333 13.1547619047619  33.3996527777778 13.3258928571429  34.4 13.3258928571429  C 35.2809027777778 13.3258928571429  36.1692708333333 13.1659226190476  37.0651041666667 12.8459821428571  C 37.9609375 12.5260416666667  38.6888020833333 12.2098214285714  39.2486979166667 11.8973214285714  C 39.80859375 11.5848214285714  40.1333333333333 11.4285714285714  40.2229166666667 11.4285714285714  Z M 38.4536458333333 1.67410714285714  C 39.5734375 2.79017857142857  40.1333333333333 4.13690476190476  40.1333333333333 5.71428571428572  C 40.1333333333333 7.29166666666667  39.5734375 8.63839285714286  38.4536458333333 9.75446428571428  C 37.3338541666667 10.8705357142857  35.9826388888889 11.4285714285714  34.4 11.4285714285714  C 32.8173611111111 11.4285714285714  31.4661458333333 10.8705357142857  30.3463541666667 9.75446428571428  C 29.2265625 8.63839285714286  28.6666666666667 7.29166666666667  28.6666666666667 5.71428571428572  C 28.6666666666667 4.13690476190476  29.2265625 2.79017857142857  30.3463541666667 1.67410714285714  C 31.4661458333333 0.558035714285716  32.8173611111111 0  34.4 0  C 35.9826388888889 0  37.3338541666667 0.558035714285716  38.4536458333333 1.67410714285714  Z " fill-rule="nonzero" fill="#1e1b1b" stroke="none" transform="matrix(1 0 0 1 500 143 )" />
  </g>
</svg>