<?xml version="1.0" encoding="utf-8"?>
<svg version="1.1" xmlns:xlink="http://www.w3.org/1999/xlink" width="40px" height="40px" xmlns="http://www.w3.org/2000/svg">
  <g transform="matrix(1 0 0 1 -727 -143 )">
    <path d="M 24.53125 24.53125  C 26.6386217948718 22.4238782051282  27.6923076923077 19.8878205128205  27.6923076923077 16.9230769230769  C 27.6923076923077 13.9583333333333  26.6386217948718 11.4222756410256  24.53125 9.31490384615385  C 22.4238782051282 7.20753205128205  19.8878205128205 6.15384615384615  16.9230769230769 6.15384615384615  C 13.9583333333333 6.15384615384615  11.4222756410256 7.20753205128205  9.31490384615385 9.31490384615385  C 7.20753205128205 11.4222756410256  6.15384615384615 13.9583333333333  6.15384615384615 16.9230769230769  C 6.15384615384615 19.8878205128205  7.20753205128205 22.4238782051282  9.31490384615385 24.53125  C 11.4222756410256 26.6386217948718  13.9583333333333 27.6923076923077  16.9230769230769 27.6923076923077  C 19.8878205128205 27.6923076923077  22.4238782051282 26.6386217948718  24.53125 24.53125  Z M 39.1105769230769 34.7596153846154  C 39.7035256410256 35.3525641025641  40 36.0737179487179  40 36.9230769230769  C 40 37.7564102564103  39.6955128205128 38.4775641025641  39.0865384615385 39.0865384615385  C 38.4775641025641 39.6955128205128  37.7564102564103 40  36.9230769230769 40  C 36.0576923076923 40  35.3365384615385 39.6955128205128  34.7596153846154 39.0865384615385  L 26.5144230769231 30.8653846153846  C 23.6458333333333 32.8525641025641  20.448717948718 33.8461538461538  16.9230769230769 33.8461538461538  C 14.6314102564103 33.8461538461538  12.4399038461538 33.4014423076923  10.3485576923077 32.5120192307692  C 8.25721153846154 31.6225961538462  6.45432692307692 30.4206730769231  4.93990384615385 28.90625  C 3.42548076923077 27.3918269230769  2.22355769230769 25.5889423076923  1.33413461538462 23.4975961538462  C 0.444711538461538 21.40625  0 19.2147435897436  0 16.9230769230769  C 0 14.6314102564103  0.444711538461538 12.4399038461538  1.33413461538462 10.3485576923077  C 2.22355769230769 8.25721153846154  3.42548076923077 6.45432692307693  4.93990384615385 4.93990384615385  C 6.45432692307692 3.42548076923077  8.25721153846154 2.22355769230769  10.3485576923077 1.33413461538462  C 12.4399038461538 0.444711538461537  14.6314102564103 0  16.9230769230769 0  C 19.2147435897436 0  21.40625 0.444711538461537  23.4975961538462 1.33413461538462  C 25.5889423076923 2.22355769230769  27.3918269230769 3.42548076923077  28.90625 4.93990384615385  C 30.4206730769231 6.45432692307693  31.6225961538462 8.25721153846154  32.5120192307692 10.3485576923077  C 33.4014423076923 12.4399038461538  33.8461538461538 14.6314102564103  33.8461538461538 16.9230769230769  C 33.8461538461538 20.4487179487179  32.8525641025641 23.6458333333333  30.8653846153846 26.5144230769231  L 39.1105769230769 34.7596153846154  Z " fill-rule="nonzero" fill="#1e1b1b" stroke="none" transform="matrix(1 0 0 1 727 143 )" />
  </g>
</svg>