<?xml version="1.0" encoding="utf-8"?>
<svg version="1.1" xmlns:xlink="http://www.w3.org/1999/xlink" width="174px" height="174px" xmlns="http://www.w3.org/2000/svg">
  <defs>
    <filter x="881px" y="77px" width="174px" height="174px" filterUnits="userSpaceOnUse" id="filter1765">
      <feOffset dx="0" dy="1" in="SourceAlpha" result="shadowOffsetInner" />
      <feGaussianBlur stdDeviation="1" in="shadowOffsetInner" result="shadowGaussian" />
      <feComposite in2="shadowGaussian" operator="atop" in="SourceAlpha" result="shadowComposite" />
      <feColorMatrix type="matrix" values="0 0 0 0 0  0 0 0 0 0  0 0 0 0 0  0 0 0 0.349019607843137 0  " in="shadowComposite" />
    </filter>
    <g id="widget1766">
      <path d="M 968 81  C 1013.92 81  1050 117.08  1050 163  C 1050 208.92  1013.92 245  968 245  C 922.08 245  886 208.92  886 163  C 886 117.08  922.08 81  968 81  Z " fill-rule="nonzero" fill="#ffffff" stroke="none" />
      <path d="M 968 80  C 1014.48 80  1051 116.52  1051 163  C 1051 209.48  1014.48 246  968 246  C 921.52 246  885 209.48  885 163  C 885 116.52  921.52 80  968 80  Z " stroke-width="4" stroke="#0500f2" fill="none" />
    </g>
  </defs>
  <g transform="matrix(1 0 0 1 -881 -77 )">
    <use xlink:href="#widget1766" filter="url(#filter1765)" />
    <use xlink:href="#widget1766" />
  </g>
</svg>