<?xml version="1.0" encoding="utf-8"?>
<svg version="1.1" xmlns:xlink="http://www.w3.org/1999/xlink" width="40px" height="40px" xmlns="http://www.w3.org/2000/svg">
  <g transform="matrix(1 0 0 1 -948 -143 )">
    <path d="M 38.5722253206916 0  C 38.8696783788808 0  39.1373861312512 0.0818452380952417  39.3753485778026 0.245535714285716  C 39.8661461238148 0.602678571428572  40.0669269380926 1.07886904761905  39.9776910206358 1.67410714285714  L 34.2665923034021 35.9598214285714  C 34.1922290388548 36.391369047619  33.9542665923034 36.7261904761905  33.5527049637479 36.9642857142857  C 33.3444878230154 37.0833333333333  33.1139617029188 37.1428571428571  32.8611266034579 37.1428571428571  C 32.6975274214538 37.1428571428571  32.5190555865402 37.1056547619048  32.3257110987172 37.03125  L 22.2197434467373 32.9017857142857  L 16.8209704406023 39.4866071428571  C 16.553262688232 39.828869047619  16.1888826919502 40  15.7278304517568 40  C 15.5344859639338 40  15.3708867819297 39.9702380952381  15.2370329057446 39.9107142857143  C 14.9544525004648 39.8065476190476  14.7276445435955 39.6316964285714  14.5566090351366 39.3861607142857  C 14.3855735266778 39.140625  14.3000557724484 38.8690476190476  14.3000557724484 38.5714285714286  L 14.3000557724484 30.78125  L 33.5750139431121 7.14285714285714  L 9.72671500278862 27.7901785714286  L 0.914668153931958 24.1741071428571  C 0.364379996281837 23.9657738095238  0.0669269380925823 23.5565476190476  0.0223089793641941 22.9464285714286  C -0.00743632645473137 22.3511904761905  0.230526120096672 21.9122023809524  0.736196319018405 21.6294642857143  L 37.8583379810374 0.200892857142856  C 38.0814277746793 0.0669642857142838  38.3193902212307 0  38.5722253206916 0  Z " fill-rule="nonzero" fill="#000000" stroke="none" transform="matrix(1 0 0 1 948 143 )" />
  </g>
</svg>