<?xml version="1.0" encoding="utf-8"?>
<svg version="1.1" xmlns:xlink="http://www.w3.org/1999/xlink" width="26px" height="24px" xmlns="http://www.w3.org/2000/svg">
  <g transform="matrix(1 0 0 1 -60 -131 )">
    <path d="M 26 0  L 6 0  L 6 13.9989339192708  L 0 13.9989339192708  L 10.0006560227805 24  L 26 24  L 26 0  Z M 23.9990159658292 1.99893290201823  C 23.9990159658292 1.99893290201823  23.9990159658292 20  23.9990159658292 20  C 23.9990159658292 20  19.9991799715244 20  19.9991799715244 20  C 19.9991799715244 20  16.5987858492506 11.4005336761475  9.59960638633169 10.1994669596354  C 8.79963918747072 9.99893363316854  7.99967198860974 9.19893423716227  7.99967198860974 8.19840087890625  C 7.99967198860974 8.19840087890625  7.99967198860974 4  7.99967198860974 4  C 7.99967198860974 2.80106671651204  8.79963855171391 1.99893290201823  10.0006560227805 1.99893290201823  C 13.2005248182244 1.99893290201823  23.9990159658292 1.99893290201823  23.9990159658292 1.99893290201823  Z " fill-rule="nonzero" fill="#333333" stroke="none" transform="matrix(1 0 0 1 60 131 )" />
  </g>
</svg>