<?xml version="1.0" encoding="utf-8"?>
<svg version="1.1" xmlns:xlink="http://www.w3.org/1999/xlink" width="20px" height="20px" viewBox="41 4249  20 20" xmlns="http://www.w3.org/2000/svg">
  <path d="M 51 4249  C 56.6 4249  61 4253.4  61 4259  C 61 4264.6  56.6 4269  51 4269  C 45.4 4269  41 4264.6  41 4259  C 41 4253.4  45.4 4249  51 4249  Z " fill-rule="nonzero" fill="#f0f0f0" stroke="none" />
  <path d="M 51 4249.5  C 56.32 4249.5  60.5 4253.68  60.5 4259  C 60.5 4264.32  56.32 4268.5  51 4268.5  C 45.68 4268.5  41.5 4264.32  41.5 4259  C 41.5 4253.68  45.68 4249.5  51 4249.5  Z " stroke-width="1" stroke="#797979" fill="none" />
  <path d="M 51 4264  C 48.2 4264  46 4261.8  46 4259  C 46 4256.2  48.2 4254  51 4254  C 53.8 4254  56 4256.2  56 4259  C 56 4261.8  53.8 4264  51 4264  " fill-rule="nonzero" fill="#797979" stroke="none" />
</svg>