<?xml version="1.0" encoding="utf-8"?>
<svg version="1.1" xmlns:xlink="http://www.w3.org/1999/xlink" width="20px" height="20px" viewBox="41 4368  20 20" xmlns="http://www.w3.org/2000/svg">
  <path d="M 51 4368  C 56.6 4368  61 4372.4  61 4378  C 61 4383.6  56.6 4388  51 4388  C 45.4 4388  41 4383.6  41 4378  C 41 4372.4  45.4 4368  51 4368  Z " fill-rule="nonzero" fill="#f0f0f0" stroke="none" />
  <path d="M 51 4368.5  C 56.32 4368.5  60.5 4372.68  60.5 4378  C 60.5 4383.32  56.32 4387.5  51 4387.5  C 45.68 4387.5  41.5 4383.32  41.5 4378  C 41.5 4372.68  45.68 4368.5  51 4368.5  Z " stroke-width="1" stroke="#797979" fill="none" />
  <path d="M 51 4383  C 48.2 4383  46 4380.8  46 4378  C 46 4375.2  48.2 4373  51 4373  C 53.8 4373  56 4375.2  56 4378  C 56 4380.8  53.8 4383  51 4383  " fill-rule="nonzero" fill="#797979" stroke="none" />
</svg>