<?xml version="1.0" encoding="utf-8"?>
<svg version="1.1" xmlns:xlink="http://www.w3.org/1999/xlink" width="9px" height="9px" xmlns="http://www.w3.org/2000/svg">
  <g transform="matrix(1 0 0 1 -149 -61 )">
    <path d="M 153.5 61  C 156.02 61  158 62.98  158 65.5  C 158 68.02  156.02 70  153.5 70  C 150.98 70  149 68.02  149 65.5  C 149 62.98  150.98 61  153.5 61  Z " fill-rule="nonzero" fill="#ffffff" stroke="none" />
    <path d="M 153.5 61.5  C 155.74 61.5  157.5 63.26  157.5 65.5  C 157.5 67.74  155.74 69.5  153.5 69.5  C 151.26 69.5  149.5 67.74  149.5 65.5  C 149.5 63.26  151.26 61.5  153.5 61.5  Z " stroke-width="1" stroke="#797979" fill="none" />
  </g>
</svg>