<?xml version="1.0" encoding="utf-8"?>
<svg version="1.1" xmlns:xlink="http://www.w3.org/1999/xlink" width="67px" height="67px" xmlns="http://www.w3.org/2000/svg">
  <g transform="matrix(1 0 0 1 -185 -794 )">
    <path d="M 218.5 794  C 237.26 794  252 808.74  252 827.5  C 252 846.26  237.26 861  218.5 861  C 199.74 861  185 846.26  185 827.5  C 185 808.74  199.74 794  218.5 794  Z " fill-rule="nonzero" fill="#ffffff" stroke="none" />
    <path d="M 218.5 794.5  C 236.98 794.5  251.5 809.02  251.5 827.5  C 251.5 845.98  236.98 860.5  218.5 860.5  C 200.02 860.5  185.5 845.98  185.5 827.5  C 185.5 809.02  200.02 794.5  218.5 794.5  Z " stroke-width="1" stroke="#797979" fill="none" />
  </g>
</svg>