<?xml version="1.0" encoding="utf-8"?>
<svg version="1.1" xmlns:xlink="http://www.w3.org/1999/xlink" width="20px" height="20px" viewBox="41 4248  20 20" xmlns="http://www.w3.org/2000/svg">
  <path d="M 51 4248  C 56.6 4248  61 4252.4  61 4258  C 61 4263.6  56.6 4268  51 4268  C 45.4 4268  41 4263.6  41 4258  C 41 4252.4  45.4 4248  51 4248  Z " fill-rule="nonzero" fill="#f0f0f0" stroke="none" />
  <path d="M 51 4248.5  C 56.32 4248.5  60.5 4252.68  60.5 4258  C 60.5 4263.32  56.32 4267.5  51 4267.5  C 45.68 4267.5  41.5 4263.32  41.5 4258  C 41.5 4252.68  45.68 4248.5  51 4248.5  Z " stroke-width="1" stroke="#797979" fill="none" />
  <path d="M 51 4263  C 48.2 4263  46 4260.8  46 4258  C 46 4255.2  48.2 4253  51 4253  C 53.8 4253  56 4255.2  56 4258  C 56 4260.8  53.8 4263  51 4263  " fill-rule="nonzero" fill="#797979" stroke="none" />
</svg>